ffmpeg started on 2023-05-07 at 11:33:37
Report written to "/dist/x265_hevc_nvenc_15.log"
Log level: 32
Command line:
ffmpeg -progress - -nostats -y -hwaccel cuda -hwaccel_output_format cuda -i /dist/base.mp4 -tag:v hvc1 -c:v hevc_nvenc -preset 15 /dist/x265_hevc_nvenc_15.mp4
ffmpeg version 6.0 Copyright (c) 2000-2023 the FFmpeg developers
  built with gcc 11 (Ubuntu 11.3.0-1ubuntu1~22.04)
  configuration: --disable-debug --disable-doc --disable-ffplay --extra-libs='-lpthread -lm' --ld=g++ --enable-small --pkg-config-flags=--static --extra-cflags=-fopenmp --extra-ldflags='-fopenmp -Wl,-z,stack-size=2097152' --toolchain=hardened --enable-static --disable-shared --enable-cuda-nvcc --extra-cflags='-I /usr/local/cuda/include' --extra-ldflags='-L /usr/local/cuda/compat -L /usr/local/cuda/lib64' --nvccflags='-gencode arch=compute_90a,code=sm_90a -gencode arch=compute_90,code=sm_90 -gencode arch=compute_89,code=sm_89 -gencode arch=compute_87,code=sm_87 -gencode arch=compute_86,code=sm_86 -gencode arch=compute_80,code=sm_80 -gencode arch=compute_75,code=sm_75 -gencode arch=compute_72,code=sm_72 -gencode arch=compute_70,code=sm_70 -O2' --enable-gpl --enable-libaom --enable-libaribb24 --enable-libass --enable-libdav1d --enable-libfdk-aac --enable-libfreetype --enable-libmfx --enable-libmp3lame --enable-libopus --enable-libvmaf --enable-libvorbis --enable-libvpx --enable-libx264 --enable-libx265 --enable  libavutil      58.  2.100 / 58.  2.100
  libavcodec     60.  3.100 / 60.  3.100
  libavformat    60.  3.100 / 60.  3.100
  libavdevice    60.  1.100 / 60.  1.100
  libavfilter     9.  3.100 /  9.  3.100
  libswscale      7.  1.100 /  7.  1.100
  libswresample   4. 10.100 /  4. 10.100
  libpostproc    57.  1.100 / 57.  1.100
Input #0, mov,mp4,m4a,3gp,3g2,mj2, from '/dist/base.mp4':
  Metadata:
    major_brand     : isom
    minor_version   : 512
    compatible_brands: isomiso2avc1mp41
    encoder         : Lavf60.3.100
  Duration: 00:05:18.05, start: 0.000000, bitrate: 5546 kb/s
  Chapters:
    Chapter #0:0: start 0.000000, end 318.047000
      Metadata:
        title           : 01
  Stream #0:0[0x1](und): Video: h264 (avc1 / 0x31637661), yuv420p(tv, bt709, progressive), 1920x1080 [SAR 1:1 DAR 16:9], 5544 kb/s, 24.36 fps, 47.95 tbr, 96k tbn (default)
    Metadata:
      handler_name    : Video Media Handler
      vendor_id       : [0][0][0][0]
      encoder         : AVC Coding
  Stream #0:1[0x2](eng): Data: bin_data (text / 0x74786574)
    Metadata:
      handler_name    : SubtitleHandler
Stream mapping:
  Stream #0:0 -> #0:0 (h264 (native) -> hevc (hevc_nvenc))
Press [q] to stop, [?] for help
Output #0, mp4, to '/dist/x265_hevc_nvenc_15.mp4':
  Metadata:
    major_brand     : isom
    minor_version   : 512
    compatible_brands: isomiso2avc1mp41
    encoder         : Lavf60.3.100
  Chapters:
    Chapter #0:0: start 0.000000, end 318.047000
      Metadata:
        title           : 01
  Stream #0:0(und): Video: hevc (hvc1 / 0x31637668), cuda(tv, bt709, progressive), 1920x1080 [SAR 1:1 DAR 16:9], q=2-31, 2000 kb/s, 47.95 fps, 48k tbn (default)
    Metadata:
      handler_name    : Video Media Handler
      vendor_id       : [0][0][0][0]
      encoder         : Lavc60.3.100 hevc_nvenc
    Side data:
      cpb: bitrate max/min/avg: 0/0/2000000 buffer size: 4000000 vbv_delay: N/A
[vost#0:0/hevc_nvenc @ 0x55f6eae73700] More than 1000 frames duplicated
frame=15251 fps=415 q=22.0 Lsize=   81134kB time=00:05:17.96 bitrate=2090.3kbits/s dup=7504 drop=0 speed=8.65x    
video:80952kB audio:0kB subtitle:0kB other streams:0kB global headers:0kB muxing overhead: 0.223907%
